<svg version="1.0" viewBox="0 0 500.000000 500.000000"
 preserveAspectRatio="xMidYMid meet"><g transform="translate(0.000000,500.000000) scale(0.100000,-0.100000)" fill="#008C5F" stroke="none"> <path d="M2440 4682 c-142 -111 -444 -347 -1183 -926 l-446 -348 55 -72 c31 -39 95 -121 143 -183 47 -62 88 -112 91 -112 3 -1 221 168 485 375 264 206 559 437 655 511 96 75 190 149 208 165 18 15 37 28 42 28 10 0 106 -119 347 -430 84 -107 205 -262 269 -345 65 -82 134 -171 153 -196 186 -240 305 -389 311 -389 16 0 355 273 355 286 0 7 -76 111 -170 231 -93 119 -195 249 -225 289 -30 39 -102 131 -160 205 -58 74 -119 152 -136 174 -69 89 -647 830 -653 837 -3 3 -67 -42 -141 -100z"/> <path d="M2445 3609 c-22 -4 -94 -20 -160 -34 -66 -15 -146 -31 -177 -37 -66 -13 -66 -14 -43 -111 8 -34 29 -129 46 -212 17 -82 33 -151 34 -153 2 -2 47 6 102 18 54 11 152 32 218 46 66 14 125 29 131 32 7 5 6 32 -7 92 -32 158 -70 335 -75 353 -6 19 -9 19 -69 6z"/> <path d="M277 3193 c-108 -82 -197 -151 -197 -155 0 -5 103 -144 228 -310 126 -167 441 -586 701 -933 261 -346 477 -634 482 -639 5 -6 24 2 46 20 21 17 241 183 488 369 248 186 487 367 532 402 46 35 87 63 92 63 5 0 76 -86 158 -191 81 -105 187 -241 236 -302 48 -61 86 -115 85 -118 -2 -4 -169 -137 -373 -296 -648 -506 -760 -595 -758 -601 1 -4 52 -71 114 -150 68 -88 117 -141 125 -138
13 5 159 117 329 251 50 39 317 248 595 465 278 216 508 396 512 399 4 4 -47
76 -113 161 -67 85 -138 178 -159 205 -21 28 -126 163 -234 300 -108 138 -196
253 -196 257 0 4 62 53 138 109 75 57 174 131 219 166 l82 63 -151 201 c-101
134 -154 197 -162 191 -6 -5 -103 -78 -216 -162 -113 -84 -210 -157 -216 -162
-7 -5 -31 18 -69 67 -32 42 -62 74 -68 72 -21 -7 -296 -222 -296 -232 -1 -5
24 -41 54 -79 31 -38 52 -73 48 -77 -30 -29 -728 -549 -737 -549 -6 1 -86 101
-178 223 -149 199 -938 1248 -943 1255 -1 1 -90 -64 -198 -145z"/>
<path d="M4564 3227 c-65 -51 -204 -160 -309 -242 -104 -82 -259 -203 -344
-269 -85 -67 -222 -174 -305 -239 -83 -65 -202 -158 -263 -205 -62 -48 -113
-91 -113 -96 0 -7 208 -276 740 -956 101 -129 235 -301 298 -383 104 -133 117
-146 133 -135 65 46 289 224 289 230 0 4 -98 133 -217 285 -735 941 -697 892
-692 897 2 2 141 110 309 241 735 574 840 657 840 664 0 3 -24 36 -53 72 -28
37 -81 103 -115 148 -35 45 -67 81 -72 81 -4 0 -61 -42 -126 -93z"/>
<path d="M2309 1613 c-22 -49 -44 -97 -49 -108 -8 -17 -81 -184 -97 -222 -3
-8 19 -24 58 -42 218 -100 361 -161 369 -156 4 3 22 38 38 78 17 39 58 132 92
206 33 74 57 137 53 142 -4 4 -66 33 -138 64 -71 32 -163 73 -203 91 -41 19
-76 34 -78 34 -3 0 -23 -39 -45 -87z"/>
</g>
</svg>
